REM MD5 4aa7f7c9ad89cc1c9bf9a856d0782b7e
FILE "Hogs of War (Europe) (Demo).bin" BINARY
  TRACK 01 MODE2/2352
    INDEX 01 00:00:00
  TRACK 02 AUDIO
    INDEX 00 07:54:18
    INDEX 01 07:56:18
  TRACK 03 AUDIO
    INDEX 00 10:43:16
    INDEX 01 10:45:16
REM LEADOUT 11:55:12
